<svg width="84" height="84" viewBox="0 0 84 84" fill="none" xmlns="http://www.w3.org/2000/svg">
<path d="M0 0V84H84V0H0ZM30.2531 59.5711H22.0664V33.3703H30.2531V59.5711ZM25.9383 30.0891H25.8727C22.9031 30.0891 20.9836 28.0875 20.9836 25.5445C20.9836 22.9523 22.9687 21 25.9875 21C29.0062 21 30.8602 22.9523 30.9258 25.5445C30.9422 28.0711 29.0227 30.0891 25.9383 30.0891ZM63 59.5711H53.7141V46.0195C53.7141 42.4758 52.2703 40.0477 49.0711 40.0477C46.6266 40.0477 45.2648 41.6883 44.6414 43.2633C44.4117 43.8211 44.4445 44.6086 44.4445 45.4125V59.5711H35.2406C35.2406 59.5711 35.3555 35.5523 35.2406 33.3703H44.4445V37.4883C44.9859 35.6836 47.9227 33.1242 52.6148 33.1242C58.4391 33.1242 63 36.8977 63 45.0023V59.5711Z" fill="#F4F4F4"/>
</svg>
