<svg width="79" height="70" viewBox="0 0 79 70" fill="none" xmlns="http://www.w3.org/2000/svg">
<path d="M55.1077 44.908L53.1086 46.7725C53.1086 46.7725 48.3572 51.2051 35.388 39.1062C22.4189 27.0077 27.1703 22.5753 27.1703 22.5753L28.429 21.401C31.5302 18.5082 31.8225 13.8638 29.1167 10.4732L23.5826 3.53738C20.234 -0.659169 13.7634 -1.21353 9.92523 2.36694L3.03644 8.79333C1.13333 10.5687 -0.141988 12.8701 0.012676 15.4231C0.408334 21.9546 3.5581 36.0077 21.1341 52.4038C39.7725 69.791 57.2609 70.4819 64.4126 69.8565C66.6746 69.6588 68.6417 68.5779 70.227 67.0989L76.4618 61.2831C80.6703 57.3569 79.4836 50.6262 74.0988 47.8801L65.7139 43.6035C62.1782 41.8004 57.8709 42.3299 55.1077 44.908Z" fill="#F4F4F4"/>
</svg>
