<svg width="57" height="56" viewBox="0 0 57 56" fill="none" xmlns="http://www.w3.org/2000/svg">
<path d="M56.7512 27.533C56.7512 42.739 44.047 55.066 28.3756 55.066C12.7042 55.066 0 42.739 0 27.533C0 12.3269 12.7042 0 28.3756 0C44.047 0 56.7512 12.3269 56.7512 27.533Z" fill="#292929"/>
<path d="M33.5465 30.0432C37.8434 22.8108 39.1836 15.7615 36.5732 14.2132L36.5109 14.1777C33.8173 12.7049 28.1227 17.4202 23.7919 24.7095L23.5912 25.051C19.4538 32.1625 18.1961 39.0153 20.7653 40.5393L20.8279 40.5749C23.4795 42.0245 29.0386 37.4782 33.3425 30.3829L33.5465 30.0432ZM34.9113 30.7895C32.6785 34.5476 30.0617 37.7018 27.586 39.7518C26.3535 40.7723 25.0877 41.5765 23.8626 42.0124C22.6445 42.4458 21.2566 42.581 20.0334 41.9122C18.8101 41.2433 18.2239 40.0287 17.9919 38.8024C17.7586 37.569 17.8347 36.1144 18.122 34.577C18.699 31.4888 20.1943 27.7214 22.4271 23.9633C24.6599 20.2051 27.2769 17.0507 29.7526 15.0007C30.9851 13.9802 32.2509 13.176 33.476 12.7401C34.6941 12.3067 36.0822 12.1716 37.3055 12.8404C38.5286 13.5093 39.1147 14.7238 39.3467 15.9501C39.58 17.1835 39.5038 18.6381 39.2166 20.1755C38.6396 23.2638 37.1441 27.0313 34.9113 30.7895Z" fill="#00DBFC"/>
<path d="M28.4834 32.8592C37.1608 32.8873 44.2165 30.5365 44.3366 27.5946L44.338 27.5251C44.3485 24.5507 37.2671 22.1164 28.5213 22.0881C19.8436 22.06 12.7878 24.411 12.6681 27.353L12.6666 27.4226C12.6564 30.3969 19.7377 32.8309 28.4834 32.8592ZM28.4779 34.4148C23.9818 34.4002 19.8479 33.7696 16.7854 32.7169C15.2619 32.1932 13.9181 31.5361 12.9248 30.732C11.9457 29.9393 11.1062 28.8286 11.1111 27.4176C11.1161 26.0065 11.9634 24.9013 12.9481 24.1149C13.947 23.3172 15.2954 22.6689 16.8226 22.1551C19.8924 21.1222 24.0305 20.518 28.5267 20.5326C33.023 20.5471 37.1567 21.1781 40.2193 22.2308C41.7428 22.7545 43.0866 23.4115 44.0799 24.2157C45.059 25.0084 45.8985 26.1191 45.8936 27.5301C45.8886 28.9411 45.0413 30.0464 44.0566 30.8327C43.0577 31.6304 41.7093 32.2788 40.1821 32.7926C37.1123 33.8254 32.9741 34.4293 28.4779 34.4148Z" fill="#00DBFC"/>
<path d="M23.7482 30.1101C28.0804 37.3987 33.7759 42.1129 36.4692 40.6395C39.1624 39.166 37.8339 32.0632 33.5018 24.7747L33.2977 24.435C29.0265 17.3966 23.5203 12.8671 20.8445 14.2118L20.781 14.2451C18.1297 15.6955 19.3755 22.601 23.5474 29.7687L23.7482 30.1101ZM22.3835 30.8567C20.15 27.0989 18.6538 23.3317 18.0762 20.2435C17.7887 18.7062 17.7124 17.2518 17.9455 16.0184C18.1772 14.792 18.7631 13.577 19.9862 12.908C21.2093 12.239 22.5974 12.3741 23.8155 12.8073C25.0407 13.243 26.3066 14.0467 27.5392 15.067C30.0154 17.1166 32.6329 20.2704 34.8665 24.0281C37.1 27.7859 38.5962 31.5531 39.1738 34.6413C39.4613 36.1786 39.5377 37.6332 39.3046 38.8666C39.0729 40.093 38.487 41.3076 37.264 41.9767C36.0409 42.6458 34.6528 42.5109 33.4346 42.0777C32.2094 41.642 30.9434 40.8381 29.7107 39.8178C27.2346 37.7682 24.617 34.6144 22.3835 30.8567Z" fill="#00DBFC"/>
<path d="M31.4561 27.6882C31.4561 29.4064 30.0042 30.7993 28.2131 30.7993C26.4221 30.7993 24.9702 29.4064 24.9702 27.6882C24.9702 25.97 26.4221 24.5771 28.2131 24.5771C30.0042 24.5771 31.4561 25.97 31.4561 27.6882Z" fill="#00DBFC"/>
</svg>
