<svg width="60" height="60" viewBox="0 0 60 60" fill="none" xmlns="http://www.w3.org/2000/svg">
<path d="M54.5652 3.12482C53.7252 5.13995 52.6499 7.04868 51.3616 8.81126C45.7173 3.17023 38.0641 0.000969265 30.0841 0C13.5809 0 2.78832e-08 13.592 2.78832e-08 30.1134C-0.000175464 34.1932 0.828047 38.2305 2.43447 41.9807C4.0409 45.7309 6.39207 49.1159 9.34551 51.9305L10.4551 52.9144C15.8777 57.4864 22.7411 59.9958 29.8339 60C45.5247 60 58.7148 47.705 59.8319 32.035C60.6523 24.3642 58.4023 14.6622 54.5652 3.12482ZM13.6197 52.102C13.3782 52.3996 13.0733 52.6396 12.7273 52.8044C12.3812 52.9693 12.0028 53.0549 11.6194 53.055C10.2053 53.055 9.04844 51.8911 9.04844 50.477C9.04844 49.0634 10.2128 47.8994 11.6194 47.8994C12.2052 47.8994 12.7838 48.1023 13.2369 48.4776C14.3385 49.3679 14.5105 51.0004 13.6197 52.102ZM54.4406 43.0878C47.0171 52.9847 31.1623 49.6491 20.9963 50.1256C20.9963 50.1256 19.1914 50.2352 17.3786 50.5318C17.3786 50.5318 18.058 50.2427 18.9412 49.9068C26.0756 47.4229 29.4511 46.9384 33.7877 44.7123C41.9533 40.5567 50.0253 31.4643 51.7055 22.0045C48.5957 31.1049 39.1715 38.9242 30.5841 42.1034C24.7003 44.2751 14.0728 46.3841 14.0728 46.3841L13.6432 46.1573C6.40761 42.6347 6.18832 26.9572 19.3395 21.8953C25.0986 19.6767 30.6075 20.8954 36.8277 19.411C43.4696 17.8334 51.1508 12.8493 54.2761 6.35039C57.7767 16.7477 61.9891 33.0264 54.4406 43.0878Z" fill="#77BC1F"/>
</svg>
