<svg width="64" height="60" viewBox="0 0 64 60" fill="none" xmlns="http://www.w3.org/2000/svg">
<path fill-rule="evenodd" clip-rule="evenodd" d="M32.0265 0.469238C14.3167 0.469238 0 14.0228 0 30.7903C0 44.1935 9.17318 55.539 21.8988 59.5546C23.4898 59.8564 24.0726 58.9021 24.0726 58.0994C24.0726 57.3965 24.0202 54.987 24.0202 52.4765C15.1112 54.2841 13.256 48.8621 13.256 48.8621C11.8242 45.348 9.70287 44.4448 9.70287 44.4448C6.78696 42.5874 9.91527 42.5874 9.91527 42.5874C13.1498 42.7882 14.847 45.6998 14.847 45.6998C17.7098 50.3178 22.323 49.013 24.1788 48.2096C24.4437 46.2518 25.2926 44.8964 26.194 44.1436C19.0885 43.4407 11.6125 40.8304 11.6125 29.1836C11.6125 25.8704 12.8843 23.1597 14.8995 21.0515C14.5815 20.2986 13.4677 17.1857 15.2181 13.0192C15.2181 13.0192 17.9222 12.2158 24.0195 16.1316C26.63 15.4678 29.3222 15.1302 32.0265 15.1274C34.7306 15.1274 37.4873 15.4791 40.0328 16.1316C46.1307 12.2158 48.8349 13.0192 48.8349 13.0192C50.5852 17.1857 49.4708 20.2986 49.1529 21.0515C51.2211 23.1597 52.4405 25.8704 52.4405 29.1836C52.4405 40.8304 44.9645 43.3901 37.8059 44.1436C38.9727 45.0973 39.9797 46.9042 39.9797 49.7658C39.9797 53.8319 39.9272 57.0952 39.9272 58.0988C39.9272 58.9021 40.5107 59.8564 42.101 59.5552C54.8267 55.5384 63.9999 44.1935 63.9999 30.7903C64.0523 14.0228 49.6832 0.469238 32.0265 0.469238Z" fill="#252525"/>
</svg>
