<svg width="93" height="91" viewBox="0 0 93 91" fill="none" xmlns="http://www.w3.org/2000/svg">
<path fill-rule="evenodd" clip-rule="evenodd" d="M46.5385 0C20.8039 0 0 20.8541 0 46.6534C0 67.2762 13.3298 84.733 31.8217 90.9115C34.1337 91.3759 34.9805 89.9076 34.9805 88.6725C34.9805 87.5909 34.9043 83.8836 34.9043 80.0209C21.9585 82.8021 19.2626 74.4595 19.2626 74.4595C17.1821 69.0526 14.0995 67.6629 14.0995 67.6629C9.8623 64.805 14.4081 64.805 14.4081 64.805C19.1083 65.114 21.5746 69.5938 21.5746 69.5938C25.7346 76.6994 32.438 74.6917 35.1349 73.4556C35.5197 70.4432 36.7533 68.3578 38.0632 67.1994C27.7379 66.1179 16.8744 62.1016 16.8744 44.1813C16.8744 39.0834 18.7225 34.9126 21.6508 31.6688C21.1888 30.5105 19.5703 25.7207 22.1137 19.3099C22.1137 19.3099 26.0432 18.0739 34.9034 24.0988C38.6967 23.0776 42.6088 22.5581 46.5385 22.5537C50.468 22.5537 54.4737 23.0949 58.1726 24.0988C67.0337 18.0739 70.9632 19.3099 70.9632 19.3099C73.5067 25.7207 71.8872 30.5105 71.4252 31.6688C74.4307 34.9126 76.2025 39.0834 76.2025 44.1813C76.2025 62.1016 65.3391 66.0401 54.9366 67.1994C56.6323 68.6668 58.0955 71.447 58.0955 75.8501C58.0955 82.1063 58.0193 87.1274 58.0193 88.6715C58.0193 89.9076 58.8671 91.3759 61.1781 90.9124C79.67 84.732 92.9998 67.2762 92.9998 46.6534C93.076 20.8541 72.1959 0 46.5385 0Z" fill="#F4F4F4"/>
</svg>
