<svg width="85" height="64" viewBox="0 0 85 64" fill="none" xmlns="http://www.w3.org/2000/svg">
<path d="M5.77099 63.4973H19.2366V30.795L0 16.3676V57.7263C0 60.9196 2.58733 63.4973 5.77099 63.4973Z" fill="#F4F4F4"/>
<path d="M65.4045 63.4973H78.8702C82.0635 63.4973 84.6412 60.9099 84.6412 57.7263V16.3676L65.4045 30.795" fill="#F4F4F4"/>
<path d="M65.4045 5.78736V30.795L84.6412 16.3675V8.67285C84.6412 1.53606 76.4945 -2.53248 70.7908 1.74767" fill="#F4F4F4"/>
<path d="M19.2366 30.795V5.78741L42.3205 23.1004L65.4045 5.78741V30.795L42.3205 48.108" fill="#F4F4F4"/>
<path d="M0 8.67285V16.3675L19.2366 30.795V5.78736L13.8504 1.74767C8.1371 -2.53248 0 1.53606 0 8.67285Z" fill="#F4F4F4"/>
</svg>
