<svg width="61" height="65" viewBox="0 0 61 65" fill="none" xmlns="http://www.w3.org/2000/svg">
<g filter="url(#filter0_d_1406_328)">
<path d="M4.00003 14.5271L30.3122 0L56.7411 14.5271V42.998L30.3122 57L4.00003 42.998V14.5271Z" fill="#193556"/>
</g>
<path d="M4.00003 14.5271L30.3122 0V57L4.00003 42.998V14.5271Z" fill="#162C45"/>
<path d="M32.3061 10.5015C31.0827 12.7529 32.0126 15.6788 34.4312 17.0995C36.6842 18.4228 39.4488 17.9814 40.9248 16.1647C40.8282 16.5508 40.677 16.9262 40.4681 17.282C39.1362 19.5495 35.9654 20.1595 33.386 18.6445C30.8066 17.1294 29.7952 14.0629 31.1271 11.7954C31.4329 11.2747 31.8358 10.8417 32.3061 10.5015Z" fill="white"/>
<path d="M27.5301 11.8574C25.5368 15.2233 27.052 19.5977 30.9925 21.7215C34.6628 23.6997 39.1671 23.0407 41.5721 20.3255C41.4147 20.9022 41.1684 21.463 40.8282 21.9944C38.6583 25.3843 33.4923 26.2962 29.2898 24.0312C25.0872 21.7661 23.4395 17.182 25.6094 13.792C26.1077 13.0137 26.7639 12.366 27.5301 11.8574Z" fill="white"/>
<path d="M21.8537 13.6077C19.1043 18.2321 21.1943 24.2421 26.6295 27.16C31.6921 29.8778 37.905 28.9724 41.2223 25.242C41.0052 26.0342 40.6654 26.8048 40.1962 27.535C37.2031 32.1924 30.0775 33.4454 24.2808 30.3334C18.4841 27.2215 16.2114 20.9231 19.2045 16.2656C19.8917 15.1963 20.7969 14.3064 21.8537 13.6077Z" fill="white"/>
<path d="M12.8098 35.1802L13.2182 33.4299H15.2602L14.8518 35.1802H12.8098Z" fill="white"/>
<path d="M14.7935 35.4719H12.6931L12.0514 38.0973C11.5847 41.0144 11.1179 40.7227 10.9429 40.781H10.2428C9.91607 40.781 9.75661 42.0645 9.71771 42.7063H11.5263C12.6465 42.7063 13.3544 41.5006 13.5683 40.8977L14.7935 35.4719Z" fill="white"/>
<path d="M14.8665 35.4135L14.8503 35.4848L13.6251 40.9106L13.6244 40.9139L13.6233 40.9172C13.5142 41.2245 13.2801 41.6838 12.9303 42.0674C12.5804 42.4509 12.1089 42.7646 11.5263 42.7646H9.6557L9.65946 42.7027C9.67901 42.3802 9.72884 41.8957 9.81523 41.4908C9.85831 41.2888 9.91119 41.1032 9.97556 40.9667C10.0077 40.8986 10.0443 40.8394 10.0864 40.7965C10.1289 40.7533 10.1811 40.7227 10.2428 40.7227H10.9357C10.9626 40.7155 10.9926 40.7131 11.0153 40.7106C11.0444 40.7074 11.0735 40.7032 11.105 40.6922C11.1659 40.6709 11.2458 40.6205 11.339 40.479C11.5283 40.1915 11.7603 39.5465 11.9937 38.088L11.9942 38.0858L11.9947 38.0834L12.6473 35.4135H14.8665ZM12.1087 38.108C11.8754 39.5655 11.6409 40.2329 11.4365 40.5433C11.3327 40.7009 11.2339 40.7707 11.1435 40.8023C11.0994 40.8177 11.0597 40.8231 11.0279 40.8266C10.993 40.8304 10.9755 40.8316 10.9613 40.8364L10.9523 40.8393H10.2428C10.2227 40.8393 10.1986 40.8488 10.1696 40.8783C10.1404 40.9081 10.1104 40.9542 10.0811 41.0164C10.0224 41.1407 9.97188 41.3161 9.92941 41.5152C9.84998 41.8875 9.80181 42.3309 9.78013 42.6479H11.5263C12.0639 42.6479 12.5064 42.3588 12.844 41.9887C13.1807 41.6197 13.4071 41.176 13.5123 40.8805L14.7205 35.5302H12.7389L12.1087 38.108ZM15.3337 33.3716L14.9086 35.1934L14.898 35.2385H12.7363L13.1613 33.4167L13.1719 33.3716H15.3337ZM12.8834 35.1218H14.8054L15.1866 33.4883H13.2646L12.8834 35.1218Z" fill="black"/>
<path d="M18.2077 31.975C19.2453 31.471 20.3364 31.4407 21.0275 31.5686C22.1095 31.6982 22.8517 32.0544 23.3346 32.5535C23.818 33.053 24.0358 33.6894 24.0804 34.3675C24.167 35.6812 23.6049 37.1638 23.0446 38.1606H24.0091L23.993 38.2318C23.9249 38.5337 23.8168 38.9868 23.7139 39.3647C23.6625 39.5534 23.612 39.7247 23.5684 39.8491C23.5466 39.911 23.526 39.9633 23.5069 40.0009C23.4976 40.0194 23.4873 40.037 23.4761 40.0508C23.4704 40.0577 23.463 40.0655 23.4537 40.072C23.4445 40.0784 23.4299 40.0859 23.4111 40.0859H17.983L17.9808 40.0857C17.2123 40.0265 16.6489 39.7883 16.2467 39.436C15.8447 39.084 15.6081 38.6221 15.4856 38.1235C15.2416 37.13 15.4481 35.9818 15.7121 35.2273C16.1833 33.4616 17.1668 32.4807 18.2077 31.975ZM20.1968 33.4888C19.815 33.4788 19.2325 33.6049 18.7152 34.0133C18.1961 34.4231 17.7468 35.1138 17.6286 36.2246C17.5796 36.5696 17.5674 37.088 17.6933 37.5233C17.7564 37.7417 17.8555 37.9434 18.0062 38.0911C18.1582 38.2402 18.3599 38.3312 18.62 38.3312H20.7635L20.7761 38.2899L21.6513 35.4312L21.6516 35.4301C21.7322 35.1481 21.757 34.7125 21.5663 34.3209C21.3735 33.925 20.9656 33.5847 20.2025 33.4893L20.1997 33.4888H20.1968Z" fill="white"/>
<path d="M18.1823 31.9225C19.2328 31.4122 20.3368 31.3814 21.0382 31.5112C22.1275 31.6423 22.8824 32.0023 23.3767 32.513C23.8719 33.0248 24.0934 33.6756 24.1388 34.3636C24.2239 35.6557 23.6901 37.103 23.1438 38.1023H24.0821L24.05 38.2448C23.9817 38.5471 23.8734 39.001 23.7703 39.38C23.7188 39.5691 23.6679 39.742 23.6235 39.8684C23.6015 39.9309 23.5798 39.9862 23.559 40.0273C23.5489 40.0472 23.5364 40.0692 23.5213 40.0878C23.5156 40.0948 23.5078 40.1034 23.4978 40.1117L23.4871 40.1199C23.472 40.1304 23.4459 40.1443 23.4112 40.1443H17.9802L17.9773 40.1439L17.9755 40.1437C17.1974 40.0837 16.6216 39.8419 16.2083 39.48C15.7953 39.1183 15.5536 38.6448 15.429 38.1374C15.1814 37.1294 15.3907 35.9697 15.6565 35.2095C16.1323 33.4293 17.1265 32.4354 18.1823 31.9225ZM21.017 31.6259C20.3362 31.5 19.258 31.5297 18.2332 32.0275C17.2076 32.5257 16.2354 33.4929 15.7685 35.2424L15.768 35.2446L15.7673 35.2466C15.5053 35.9954 15.302 37.1313 15.5423 38.1096C15.6627 38.5994 15.8941 39.0498 16.2852 39.3922C16.664 39.7239 17.1926 39.9544 17.9148 40.0216L17.9867 40.0276H23.4111C23.4139 40.0276 23.4171 40.0264 23.4204 40.0241C23.4237 40.0217 23.4273 40.0183 23.4309 40.0139L23.4424 39.9973C23.4464 39.9907 23.4506 39.9831 23.455 39.9746C23.4722 39.9405 23.4919 39.891 23.5134 39.8298C23.5564 39.7073 23.6064 39.5377 23.6577 39.3494C23.7602 38.9726 23.8681 38.5204 23.9362 38.219H22.945L22.9938 38.1321C23.5517 37.1395 24.1077 35.6687 24.0223 34.3714C23.9783 33.7034 23.7642 33.0813 23.2928 32.5941C22.8216 32.1072 22.0933 31.755 21.0207 31.6265L21.0188 31.6263L21.017 31.6259ZM20.1984 33.4305H20.2043L20.209 33.4312L20.2119 33.4317C20.9899 33.5294 21.4161 33.8793 21.6188 34.2954C21.8174 34.7033 21.7911 35.1545 21.7078 35.4462L21.7075 35.4468L21.7072 35.448L21.7071 35.4483L20.8067 38.3896H18.6201C18.3449 38.3896 18.1284 38.2927 17.9653 38.1329C17.8051 37.9757 17.7021 37.7636 17.6373 37.5395C17.5083 37.0934 17.5213 36.566 17.571 36.2165C17.691 35.0927 18.1468 34.3877 18.679 33.9676C19.208 33.5499 19.8043 33.4202 20.1984 33.4305ZM20.1238 33.547C19.755 33.5539 19.2254 33.685 18.7514 34.0592C18.2458 34.4583 17.8034 35.1341 17.6867 36.2308L17.6865 36.2329C17.6381 36.5732 17.6265 37.0826 17.7493 37.5072C17.8108 37.7198 17.906 37.9112 18.047 38.0494C18.1881 38.1877 18.3751 38.2729 18.6201 38.2729H20.7204L21.5955 35.4141L21.5958 35.4133C21.6734 35.1411 21.6965 34.7214 21.5138 34.3464C21.3367 33.9829 20.9662 33.6613 20.2643 33.5567L20.1953 33.5472L20.1238 33.547Z" fill="black"/>
<path d="M25.9952 40.0223H29.9624L31.421 33.4297H29.4957L28.3289 38.2721H26.987C26.3803 38.2254 26.3841 37.5136 26.4619 37.1636L27.162 33.4297H25.2951C24.5016 35.7167 24.3033 37.8831 24.3033 38.6805C24.63 39.6606 25.5674 39.9834 25.9952 40.0223Z" fill="white"/>
<path d="M27.2323 33.3716L26.5192 37.1745L26.5191 37.1755L26.5188 37.1765C26.4812 37.3459 26.4622 37.6007 26.5237 37.8157C26.5543 37.9225 26.6039 38.0165 26.6779 38.0861C26.7508 38.1546 26.8508 38.2029 26.9891 38.214H28.2828L29.4389 33.4163L29.4497 33.3716H31.4936L30.0092 40.0809H25.9925L25.9899 40.0807C25.5495 40.0406 24.5847 39.7098 24.2478 38.6992L24.2449 38.6901V38.6807C24.2449 37.8775 24.4441 35.7045 25.2399 33.4108L25.2535 33.3716H27.2323ZM25.3368 33.4883C24.5602 35.7447 24.3632 37.8761 24.3616 38.6709C24.6802 39.6121 25.5832 39.9257 25.9982 39.9642H29.9155L31.3482 33.4883H29.5417L28.3856 38.286L28.3747 38.3306H26.9847L26.9825 38.3304C26.8186 38.3178 26.6923 38.2597 26.598 38.1711C26.5046 38.0832 26.4462 37.9686 26.4116 37.8478C26.3429 37.6078 26.3648 37.3318 26.4049 37.1512L27.0917 33.4883H25.3368Z" fill="black"/>
<path d="M35.2911 33.2566C37.2236 33.2096 37.9277 34.1427 38.0326 34.6444H38.0328C38.1517 35.1915 38.1114 35.7976 38.0156 36.3233C37.9198 36.8492 37.7674 37.2998 37.6581 37.5381L37.6426 37.5722H33.2785C33.2556 37.7166 33.2663 37.8283 33.297 37.9149C33.3307 38.0102 33.3896 38.0795 33.4617 38.1308C33.6083 38.235 33.8084 38.2643 33.9526 38.274H37.3861L37.3919 38.3258C37.4045 38.4385 37.3936 38.5882 37.3695 38.7531C37.3452 38.9192 37.3069 39.1048 37.2624 39.291C37.1734 39.6634 37.0591 40.0414 36.9809 40.2761L36.9676 40.316H33.3599L33.3533 40.3144C32.3643 40.0789 31.6445 39.5116 31.4015 39.2501L31.3652 39.214C31.1885 39.0289 31.0897 38.773 31.0442 38.4846C30.9955 38.1766 31.0067 37.8259 31.0525 37.4716C31.1441 36.7641 31.3755 36.0313 31.5614 35.5709C31.848 34.6187 32.5331 34.0348 33.2677 33.6923C34.0009 33.3505 34.7878 33.247 35.2911 33.2566ZM35.2208 35.0057C34.8179 34.9457 33.8945 35.0415 33.4118 35.9102L33.3637 35.9969H35.898L35.9106 35.9557C35.9525 35.8196 35.969 35.6085 35.8785 35.4164C35.786 35.2199 35.5869 35.0545 35.2208 35.0057Z" fill="white"/>
<path d="M35.2901 33.1982C37.1871 33.1523 37.9349 34.0433 38.0786 34.586H38.0798L38.0899 34.6319C38.2111 35.1896 38.1695 35.8042 38.073 36.3338C37.9764 36.8636 37.8227 37.3188 37.7112 37.5621L37.6958 37.5963L37.6802 37.6305H33.3296C33.3174 37.7431 33.3286 37.8292 33.352 37.8954C33.3812 37.978 33.432 38.038 33.4957 38.0832C33.6277 38.1771 33.8126 38.2059 33.9552 38.2156H37.4384L37.45 38.3193L37.4538 38.3661C37.4602 38.4787 37.4485 38.616 37.4272 38.7616C37.4026 38.9299 37.3639 39.1174 37.3192 39.3045C37.241 39.6322 37.1433 39.9638 37.0674 40.1996L37.0363 40.2945L37.0096 40.3743H33.353L33.3463 40.3727L33.3397 40.3711C32.34 40.1331 31.6116 39.5607 31.3605 39.2913L31.3241 39.2553L31.323 39.2543C31.1352 39.0576 31.0332 38.7888 30.9866 38.4937C30.9368 38.1782 30.9484 37.8215 30.9947 37.464C31.0869 36.7519 31.3191 36.0157 31.5061 35.552C31.7992 34.5807 32.4986 33.9865 33.243 33.6395C33.9847 33.2938 34.7794 33.1889 35.2901 33.1982ZM37.9756 34.6563C37.878 34.1895 37.2051 33.2684 35.2925 33.3149H35.29C34.794 33.3055 34.0163 33.4078 33.2924 33.7452C32.5681 34.0828 31.8978 34.6558 31.6173 35.5878L31.6165 35.5903L31.6156 35.5928C31.431 36.0499 31.2012 36.7778 31.1105 37.4791C31.065 37.8303 31.0544 38.1749 31.1018 38.4754C31.1463 38.757 31.2418 39.0001 31.4073 39.1735L31.4428 39.2087L31.4436 39.2095L31.4443 39.2104C31.6807 39.4648 32.3907 40.0252 33.3668 40.2576H36.9256C37.0034 40.0242 37.1172 39.6479 37.2057 39.2774C37.25 39.0922 37.2879 38.9084 37.3118 38.7447C37.3328 38.6015 37.343 38.4736 37.3374 38.3735L37.334 38.3323H33.9508L33.9487 38.3322C33.803 38.3224 33.5887 38.2926 33.428 38.1783C33.3474 38.121 33.2802 38.0424 33.242 37.9344C33.2074 37.8367 33.1968 37.7148 33.2209 37.5631L33.2288 37.5138H37.6051C37.7121 37.2805 37.8632 36.8345 37.9582 36.3128C38.0506 35.8059 38.0902 35.2274 37.9854 34.7027L37.9756 34.6563ZM33.3609 35.8819C33.8594 34.9845 34.8117 34.8861 35.2284 34.9478C35.6105 34.9988 35.8289 35.1741 35.9313 35.3915C36.0296 35.6003 36.0112 35.8272 35.9664 35.9729L35.9411 36.0553H33.2647L33.3609 35.8819ZM35.2122 35.0634C34.8226 35.0053 33.9293 35.0992 33.463 35.9385L33.4628 35.9386H35.8549C35.8937 35.8122 35.9084 35.6167 35.8258 35.4412C35.7432 35.2657 35.5632 35.1102 35.2131 35.0635L35.2122 35.0634Z" fill="black"/>
<path d="M39.9388 40.0808H37.8968L39.4137 33.4298H43.9643C45.2245 33.6165 45.3451 34.7133 45.2479 35.2384H41.0473L39.9388 40.0808Z" fill="white"/>
<path d="M45.2479 35.5301H43.1476L43.9643 38.5639L43.4976 40.0808H45.7729L46.123 38.5639L50.9654 32.4963H48.4567L45.5979 36.4052L45.2479 35.5301Z" fill="white"/>
<path d="M43.9687 33.3715L43.9729 33.3721C44.622 33.4683 44.9837 33.8012 45.1676 34.1819C45.3498 34.5588 45.3555 34.9774 45.3052 35.249L45.2964 35.2967H41.0937L39.9853 40.1391H37.8236L39.3672 33.3715H43.9687ZM51.0866 32.438L46.1769 38.5898L45.8193 40.1391H43.4186L43.9036 38.5627L43.0714 35.4718H45.2874L45.302 35.5085L45.613 36.2858L48.4096 32.4619L48.427 32.438H51.0866ZM45.5829 36.5247L45.2084 35.5884H43.2237L44.0206 38.5487L44.0251 38.5649L44.0201 38.5811L43.5766 40.0224H45.7266L46.0691 38.5379L46.0774 38.5275L50.8442 32.5547H48.4862L45.5829 36.5247ZM37.9699 40.0224H39.8923L41.0008 35.1801H45.1984C45.2361 34.9267 45.2212 34.5607 45.0626 34.2326C44.8959 33.8876 44.5683 33.5795 43.96 33.4881H39.4602L37.9699 40.0224Z" fill="black"/>
<defs>
<filter id="filter0_d_1406_328" x="3.05176e-05" y="0" width="60.741" height="65" filterUnits="userSpaceOnUse" color-interpolation-filters="sRGB">
<feFlood flood-opacity="0" result="BackgroundImageFix"/>
<feColorMatrix in="SourceAlpha" type="matrix" values="0 0 0 0 0 0 0 0 0 0 0 0 0 0 0 0 0 0 127 0" result="hardAlpha"/>
<feOffset dy="4"/>
<feGaussianBlur stdDeviation="2"/>
<feComposite in2="hardAlpha" operator="out"/>
<feColorMatrix type="matrix" values="0 0 0 0 0 0 0 0 0 0 0 0 0 0 0 0 0 0 0.25 0"/>
<feBlend mode="normal" in2="BackgroundImageFix" result="effect1_dropShadow_1406_328"/>
<feBlend mode="normal" in="SourceGraphic" in2="effect1_dropShadow_1406_328" result="shape"/>
</filter>
</defs>
</svg>
