<svg width="60" height="60" viewBox="0 0 60 60" fill="none" xmlns="http://www.w3.org/2000/svg">
<ellipse cx="29.7521" cy="30" rx="29.7521" ry="30" fill="#4478A1"/>
<path d="M18.6087 41.9726H16.9523C16.8937 39.1873 16.7324 36.5687 16.4687 34.115H16.4539L13.932 41.9726H12.6709L10.1641 34.115H10.1497C9.9637 36.4708 9.84655 39.09 9.7979 41.9726H8.28809C8.38539 38.4672 8.62993 35.181 9.02075 32.1134H11.0737L13.4631 39.3579H13.4778L15.882 32.1134H17.8463C18.2765 35.7065 18.5306 38.9931 18.6087 41.9726ZM25.7922 34.6985C25.1178 38.3445 24.228 40.9937 23.1237 42.6473C22.2634 43.9202 21.3207 44.5574 20.2942 44.5574C20.0206 44.5574 19.6829 44.4751 19.2828 44.3118V43.4327C19.4784 43.4608 19.7079 43.4767 19.9716 43.4767C20.4511 43.4767 20.8364 43.3453 21.1303 43.0819C21.4817 42.7612 21.6574 42.4005 21.6574 42.0016C21.6574 41.728 21.5205 41.1687 21.2471 40.3218L19.4294 34.6982H21.0567L22.3613 38.9041C22.6545 39.8591 22.7768 40.5259 22.7278 40.9056C23.4412 39.0074 23.9396 36.9376 24.2235 34.6979H25.7922V34.6985Z" fill="#F4F4F4"/>
<path d="M47.8408 41.9726H43.1357V32.1134H44.7185V40.759H47.8408V41.9726ZM41.904 42.2108L40.0847 41.3164C40.246 41.1843 40.4003 41.0415 40.5392 40.876C41.3125 39.971 41.6982 38.6327 41.6982 36.8601C41.6982 33.5984 40.4134 31.9668 37.8429 31.9668C36.5824 31.9668 35.5991 32.3806 34.8959 33.2088C34.1232 34.1143 33.7375 35.4479 33.7375 37.2109C33.7375 38.944 34.0794 40.2153 34.7634 41.0217C35.3891 41.7522 36.3324 42.118 37.5938 42.118C38.0644 42.118 38.4961 42.0606 38.8895 41.9448L41.2581 43.3185L41.904 42.2108ZM36.0104 39.9997C35.6097 39.3575 35.4093 38.3263 35.4093 36.9045C35.4093 34.4221 36.1663 33.1794 37.6819 33.1794C38.4741 33.1794 39.0547 33.4766 39.426 34.0697C39.8261 34.7129 40.0274 35.7348 40.0274 37.1369C40.0274 39.6397 39.2698 40.8913 37.7552 40.8913C36.9626 40.8916 36.382 40.5954 36.0104 39.9997ZM33.0478 39.2399C33.0478 40.0759 32.7398 40.7618 32.1247 41.2991C31.5088 41.8342 30.683 42.1024 29.6482 42.1024C28.6803 42.1024 27.7418 41.7943 26.8334 41.1815L27.2588 40.3349C28.0405 40.7248 28.7481 40.9187 29.3835 40.9187C29.9798 40.9187 30.4458 40.787 30.7838 40.5259C31.1215 40.2638 31.3229 39.8961 31.3229 39.4312C31.3229 38.8454 30.9128 38.3448 30.1607 37.9255C29.467 37.546 28.0798 36.7527 28.0798 36.7527C27.328 36.2068 26.9515 35.6207 26.9515 34.6551C26.9515 33.8561 27.2323 33.211 27.794 32.7202C28.3564 32.2276 29.082 31.9821 29.9715 31.9821C30.8901 31.9821 31.7252 32.2273 32.4774 32.7126L32.0959 33.5595C31.4525 33.2872 30.8175 33.151 30.1911 33.151C29.6837 33.151 29.292 33.2725 29.0196 33.5165C28.745 33.7594 28.5756 34.0703 28.5756 34.4517C28.5756 35.0346 28.9943 35.5416 29.767 35.9692C30.4699 36.3493 31.8916 37.1564 31.8916 37.1564C32.6627 37.7013 33.0478 38.282 33.0478 39.2399Z" fill="#F8981D"/>
<path d="M49.8279 28.8112C48.8708 28.787 48.1299 28.883 47.508 29.1451C47.3284 29.2165 47.0429 29.2165 47.0179 29.4426C47.1149 29.5382 47.1261 29.6926 47.2103 29.8246C47.3537 30.0628 47.6037 30.3832 47.8319 30.5503C48.0825 30.7417 48.3341 30.9311 48.5978 31.0978C49.0629 31.3845 49.5901 31.5513 50.0433 31.837C50.3074 32.0031 50.5698 32.218 50.8342 32.3969C50.9642 32.4923 51.0474 32.6469 51.2161 32.7065V32.6702C51.1316 32.563 51.1076 32.4081 51.0247 32.2888L50.6655 31.9438C50.3186 31.4795 49.8874 31.0742 49.4223 30.7413C49.0395 30.4786 48.2022 30.1215 48.047 29.6821L48.0226 29.6578C48.2857 29.6333 48.5978 29.5382 48.8478 29.4652C49.2546 29.3584 49.6256 29.3826 50.043 29.2758C50.235 29.228 50.4255 29.168 50.6182 29.109V29.0016C50.4018 28.787 50.2475 28.5019 50.0199 28.2991C49.4111 27.7752 48.7402 27.2628 48.047 26.8339C47.6757 26.5951 47.1981 26.4414 46.8028 26.2382C46.6604 26.1665 46.4203 26.1311 46.3365 26.0119C46.122 25.7497 46.0013 25.4047 45.8458 25.0945C45.5001 24.4398 45.1643 23.7134 44.866 23.0212C44.6503 22.5569 44.5191 22.0933 44.256 21.6637C43.0237 19.6389 41.6854 18.4125 39.6286 17.2088C39.1866 16.9582 38.6607 16.8513 38.0989 16.72L37.2017 16.6728C37.0103 16.5892 36.8186 16.3625 36.6515 16.2554C35.9691 15.8268 34.2122 14.8979 33.7103 16.1243C33.3871 16.8995 34.1885 17.6616 34.4638 18.0548C34.667 18.3277 34.9305 18.6383 35.0726 18.9482C35.1568 19.1507 35.1805 19.3656 35.2646 19.5796C35.456 20.1038 35.635 20.687 35.8865 21.1762C36.0178 21.4255 36.1609 21.6876 36.3286 21.9134C36.4246 22.0454 36.5917 22.1038 36.6282 22.319C36.4614 22.5563 36.4483 22.9143 36.3526 23.2122C35.9224 24.5581 36.0904 26.2255 36.7002 27.2146C36.8909 27.5125 37.3461 28.1681 37.9549 27.9168C38.4939 27.7025 38.3745 27.0236 38.5294 26.4283C38.565 26.2845 38.5416 26.1901 38.6133 26.0957V26.119C38.7801 26.4522 38.9484 26.7733 39.103 27.1075C39.474 27.6907 40.1199 28.2985 40.658 28.7025C40.9444 28.918 41.1714 29.2867 41.5302 29.4183V29.3826H41.5065C41.4338 29.2758 41.3276 29.228 41.2322 29.1451C41.0164 28.9305 40.7777 28.6684 40.6103 28.4305C40.109 27.7631 39.6654 27.0243 39.2717 26.2618C39.079 25.892 38.9129 25.4876 38.7577 25.1184C38.6853 24.9758 38.6853 24.7609 38.5653 24.6892C38.3854 24.951 38.1233 25.1777 37.992 25.4985C37.7644 26.0115 37.7408 26.6426 37.6563 27.2988L37.6092 27.3218C37.2283 27.2264 37.0958 26.8339 36.9511 26.5007C36.593 25.6544 36.5328 24.296 36.8436 23.3196C36.9268 23.07 37.2869 22.2836 37.1432 22.0457C37.0712 21.8177 36.8317 21.688 36.7005 21.5084C36.5462 21.2827 36.3772 20.997 36.2697 20.7463C35.9829 20.0796 35.8385 19.3408 35.5297 18.6743C35.3853 18.3637 35.1347 18.0423 34.9318 17.7563C34.7039 17.4349 34.4532 17.2085 34.273 16.8274C34.2135 16.6964 34.1299 16.4821 34.2257 16.3396C34.249 16.2439 34.2977 16.2082 34.3931 16.1843C34.548 16.0538 34.9906 16.2197 35.1459 16.2914C35.5892 16.47 35.9598 16.6367 36.3299 16.8867C36.4973 17.0063 36.6768 17.2327 36.8916 17.2923H37.1432C37.525 17.3752 37.9555 17.3153 38.315 17.4231C38.9484 17.6259 39.5223 17.9234 40.037 18.2445C41.6031 19.2339 42.8947 20.6398 43.7666 22.319C43.9096 22.5926 43.9705 22.8432 44.101 23.1286C44.353 23.7128 44.6644 24.3084 44.9144 24.8802C45.1656 25.4398 45.405 26.0112 45.7638 26.4761C45.9428 26.7261 46.6617 26.8572 46.984 26.9882C47.2224 27.0951 47.5937 27.1901 47.8088 27.3211C48.2156 27.5708 48.6209 27.8575 49.0034 28.132C49.1938 28.2749 49.7924 28.5727 49.8279 28.8112ZM37.631 18.4594C37.4659 18.4577 37.3013 18.4779 37.1416 18.5194V18.5433H37.1646C37.261 18.7336 37.4284 18.8656 37.5478 19.0318C37.6441 19.2228 37.7276 19.4122 37.8221 19.6029L37.8451 19.5793C38.0138 19.4603 38.0977 19.2697 38.0977 18.9836C38.025 18.8994 38.0138 18.8172 37.9533 18.7336C37.8829 18.6144 37.7276 18.5551 37.631 18.4594Z" fill="#F4F4F4"/>
<path d="M50.9667 41.971H51.2145V40.7631H50.8428L50.5397 41.5874L50.2104 40.7631H49.8525V41.971H50.0865V41.052H50.0996L50.4447 41.971H50.623L50.9667 41.052V41.971ZM48.971 41.971H49.2332V40.9678H49.5763V40.7628H48.6135V40.9678H48.9704L48.971 41.971Z" fill="#F8981D"/>
</svg>
