<svg width="51" height="58" viewBox="0 0 51 58" fill="none" xmlns="http://www.w3.org/2000/svg">
<path d="M0 0H50.345L46.1881 51.4997L25.5189 57.6196L4.38787 51.4997L0 0Z" fill="#8BC54C"/>
<path d="M25.4034 3.92578H45.9571L42.2621 48.3818L25.4034 52.5387V3.92578Z" fill="#ADD272"/>
<path d="M40.53 20.3776V37.6097L25.1926 46.5154L19.0526 43.1313L21.5929 41.8612L25.1524 44.1352L38.4516 36.4131V21.5445L25.2857 13.5166L12.0089 21.547V36.4036L16.8586 39.0899C17.205 39.0899 17.5686 39.1641 17.8979 38.9744C18.2052 38.7973 18.7682 38.4191 18.9371 36.9516V22.5776H21.0156V37.0673L21.0095 37.123C20.803 39.0333 20.0784 40.2753 18.9998 40.8968C17.9626 41.4944 16.8461 41.371 16.1392 41.0991L16.0686 41.072L16.0028 41.0348L9.93042 37.6192V20.3751L25.2902 11.085L40.53 20.3776Z" fill="white"/>
<path d="M28.4007 21.9418C30.7298 21.8947 32.3329 22.5639 33.3483 23.5843C34.3442 24.5851 34.6675 25.8191 34.6406 26.7074L32.5631 26.6443C32.5746 26.2624 32.4244 25.6027 31.875 25.0505C31.3476 24.5204 30.3389 23.9783 28.4282 24.0198L28.4032 24.0203L28.3784 24.0196C27.7519 24.0031 26.818 24.1128 26.0726 24.4539C25.3553 24.7822 24.9668 25.2337 24.9409 25.9075L24.9386 25.965L24.9301 26.0218C24.9206 26.085 24.9251 26.3555 25.2172 26.6569C25.4986 26.9472 26.1237 27.3386 27.4434 27.4758L27.5733 27.4882L27.5895 27.4895L27.6057 27.4916C28.5463 27.6044 30.7601 27.9043 31.9548 28.1957C32.6686 28.3058 33.6855 28.6726 34.3628 29.5306C35.1326 30.5058 35.267 31.8528 34.5502 33.4518C34.0317 34.659 32.139 35.9993 28.6513 35.9139C27.6302 35.9715 26.1083 35.8367 24.7891 35.1933C23.3852 34.5087 22.1703 33.2092 22.1703 31.0637H24.2488C24.2488 32.2437 24.8429 32.9072 25.7002 33.3253C26.6199 33.7738 27.7822 33.8873 28.5703 33.837L28.6179 33.8341L28.6655 33.8354C30.1916 33.8778 31.1916 33.6021 31.8046 33.2989C32.1122 33.1468 32.3225 32.9878 32.4575 32.8573C32.5251 32.792 32.5718 32.7357 32.6021 32.6934C32.6288 32.656 32.6393 32.6344 32.6409 32.6311L32.647 32.6162L32.6535 32.6016C33.1376 31.5218 32.9064 31.0403 32.7313 30.8186C32.4824 30.5032 32.0126 30.3009 31.6122 30.2457L31.5568 30.2381L31.5022 30.2243C30.47 29.9663 28.3425 29.6735 27.3678 29.5563C25.6482 29.4008 24.4645 28.8665 23.7249 28.1034C23.0023 27.358 22.7799 26.4661 22.8674 25.767C22.9577 24.076 24.0756 23.0821 25.2077 22.564C26.3109 22.0592 27.5644 21.924 28.4007 21.9418Z" fill="white"/>
</svg>
